<svg width="462" height="111" viewBox="0 0 462 111" fill="none" xmlns="http://www.w3.org/2000/svg" class="h-full w-auto max-w-none md:hidden lg:block"><g><g><path fill-rule="evenodd" clip-rule="evenodd" d="M135.914 35.8828V77.9141C135.914 79.5287 136.487 80.9088 137.633 82.0547C138.779 83.2005 140.159 83.7734 141.773 83.7734H153.141C154.13 83.7734 154.977 84.125 155.68 84.8281C156.383 85.5313 156.734 86.3776 156.734 87.3672V87.4453C156.734 88.4349 156.383 89.2682 155.68 89.9453C154.977 90.6484 154.13 91 153.141 91H141.773C138.154 91 135.068 89.724 132.516 87.1719C129.964 84.6198 128.688 81.5339 128.688 77.9141V35.8828C128.688 34.8932 129.039 34.0469 129.742 33.3438C130.445 32.6667 131.279 32.3281 132.242 32.3281H132.359C133.323 32.3281 134.156 32.6667 134.859 33.3438C135.563 34.0469 135.914 34.8932 135.914 35.8828ZM181.188 55.6484C177.281 55.6484 173.948 57.0286 171.188 59.7891C168.453 62.5495 167.086 65.8828 167.086 69.7891C167.086 70.4922 167.138 71.1823 167.242 71.8594L191.969 60.6875C189.156 57.3281 185.563 55.6484 181.188 55.6484ZM200.68 63.5391C201.018 62.6016 200.979 61.6901 200.562 60.8047C198.87 57.0807 196.292 54.0859 192.828 51.8203C189.312 49.5026 185.432 48.3438 181.188 48.3438C175.302 48.3438 170.276 50.4271 166.109 54.5938C161.943 58.7604 159.859 63.7864 159.859 69.6719C159.859 75.5573 161.943 80.5833 166.109 84.75C170.276 88.9167 175.302 91 181.188 91C185.771 91 189.924 89.6589 193.648 86.9766C197.294 84.3724 199.846 80.961 201.305 76.7422C201.721 75.5703 201.578 74.4896 200.875 73.5C200.146 72.4844 199.169 71.9766 197.945 71.9766C196.227 71.9766 195.081 72.7838 194.508 74.3984C193.544 77.1849 191.865 79.4505 189.469 81.1953C186.995 82.9922 184.234 83.8906 181.188 83.8906C176.604 83.8906 172.906 82.0938 170.094 78.5C172.281 77.5104 177.06 75.349 184.43 72.0156C190.367 69.3333 195.159 67.1719 198.805 65.5312C199.716 65.1146 200.341 64.4505 200.68 63.5391ZM228.727 55.6484C224.82 55.6484 221.487 57.0286 218.727 59.7891C215.992 62.5495 214.625 65.8828 214.625 69.7891C214.625 70.4922 214.677 71.1823 214.781 71.8594L239.508 60.6875C236.695 57.3281 233.102 55.6484 228.727 55.6484ZM248.219 63.5391C248.557 62.6016 248.518 61.6901 248.102 60.8047C246.409 57.0807 243.831 54.0859 240.367 51.8203C236.852 49.5026 232.971 48.3438 228.727 48.3438C222.841 48.3438 217.815 50.4271 213.648 54.5938C209.482 58.7604 207.398 63.7864 207.398 69.6719C207.398 75.5573 209.482 80.5833 213.648 84.75C217.815 88.9167 222.841 91 228.727 91C233.31 91 237.464 89.6589 241.188 86.9766C244.833 84.3724 247.385 80.961 248.844 76.7422C249.26 75.5703 249.117 74.4896 248.414 73.5C247.685 72.4844 246.708 71.9766 245.484 71.9766C243.766 71.9766 242.62 72.7838 242.047 74.3984C241.083 77.1849 239.404 79.4505 237.008 81.1953C234.534 82.9922 231.773 83.8906 228.727 83.8906C224.143 83.8906 220.445 82.0938 217.633 78.5C219.82 77.5104 224.599 75.349 231.969 72.0156C237.906 69.3333 242.698 67.1719 246.344 65.5312C247.255 65.1146 247.88 64.4505 248.219 63.5391ZM259.781 32.3281C260.745 32.3281 261.578 32.6667 262.281 33.3438C262.984 34.0469 263.336 34.8932 263.336 35.8828V48.3438H270.367C271.331 48.3438 272.164 48.6953 272.867 49.3984C273.57 50.1016 273.922 50.9479 273.922 51.9375V52.0156C273.922 53.0052 273.57 53.8385 272.867 54.5156C272.164 55.2188 271.331 55.5703 270.367 55.5703H263.336V79.9062C263.336 80.974 263.714 81.8854 264.469 82.6406C265.224 83.3958 266.148 83.7734 267.242 83.7734H270.367C271.331 83.7734 272.164 84.125 272.867 84.8281C273.57 85.5313 273.922 86.3776 273.922 87.3672V87.4453C273.922 88.4349 273.57 89.2682 272.867 89.9453C272.164 90.6484 271.331 91 270.367 91H267.242C264.169 91 261.539 89.9193 259.352 87.7578C257.19 85.5703 256.109 82.9531 256.109 79.9062V35.8828C256.109 34.8932 256.461 34.0469 257.164 33.3438C257.867 32.6667 258.701 32.3281 259.664 32.3281H259.781ZM315.055 33.2266C312.659 32.6276 310.224 32.3281 307.75 32.3281C299.651 32.3281 292.737 35.1927 287.008 40.9219C281.279 46.6511 278.414 53.5651 278.414 61.6641C278.414 69.7631 281.279 76.6771 287.008 82.4062C292.737 88.1354 299.651 91 307.75 91C310.224 91 312.659 90.7005 315.055 90.1016C316.852 89.6328 317.75 88.474 317.75 86.625V86.5469C317.75 85.375 317.281 84.4375 316.344 83.7344C315.432 83.0312 314.417 82.8229 313.297 83.1094C311.474 83.5521 309.625 83.7734 307.75 83.7734C301.656 83.7734 296.448 81.625 292.125 77.3281C287.802 73.0052 285.641 67.7839 285.641 61.6641C285.641 55.5442 287.802 50.3229 292.125 46C296.448 41.6771 301.656 39.5156 307.75 39.5156C309.625 39.5156 311.474 39.75 313.297 40.2188C314.417 40.5052 315.432 40.2969 316.344 39.5938C317.281 38.8646 317.75 37.9271 317.75 36.7812V36.6641C317.75 34.8411 316.852 33.6953 315.055 33.2266ZM344.156 55.6484C340.25 55.6484 336.917 57.0286 334.156 59.7891C331.422 62.5495 330.055 65.8828 330.055 69.7891C330.055 73.6693 331.422 76.9896 334.156 79.75C336.917 82.5104 340.25 83.8906 344.156 83.8906C348.063 83.8906 351.383 82.5104 354.117 79.75C356.878 76.9896 358.258 73.6693 358.258 69.7891C358.258 65.8828 356.878 62.5495 354.117 59.7891C351.383 57.0286 348.063 55.6484 344.156 55.6484ZM359.234 54.5938C355.068 50.4271 350.042 48.3438 344.156 48.3438C338.271 48.3438 333.245 50.4271 329.078 54.5938C324.911 58.7604 322.828 63.7864 322.828 69.6719C322.828 75.5573 324.911 80.5833 329.078 84.75C333.245 88.9167 338.271 91 344.156 91C350.042 91 355.068 88.9167 359.234 84.75C363.401 80.5833 365.484 75.5573 365.484 69.6719C365.484 63.7864 363.401 58.7604 359.234 54.5938ZM392.281 55.6484C388.375 55.6484 385.042 57.0286 382.281 59.7891C379.547 62.5495 378.18 65.8828 378.18 69.7891C378.18 73.6693 379.547 76.9896 382.281 79.75C385.042 82.5104 388.375 83.8906 392.281 83.8906C396.188 83.8906 399.508 82.5104 402.242 79.75C405.003 76.9896 406.383 73.6693 406.383 69.7891C406.383 65.8828 405.003 62.5495 402.242 59.7891C399.508 57.0286 396.188 55.6484 392.281 55.6484ZM412.555 33.3438C411.852 32.6667 411.018 32.3281 410.055 32.3281H409.938C408.974 32.3281 408.141 32.6667 407.438 33.3438C406.734 34.0469 406.383 34.8932 406.383 35.8828V53.6953C402.346 50.1276 397.646 48.3438 392.281 48.3438C386.396 48.3438 381.37 50.4271 377.203 54.5938C373.036 58.7604 370.953 63.7864 370.953 69.6719C370.953 75.5573 373.036 80.5833 377.203 84.75C381.37 88.9167 386.396 91 392.281 91C398.141 91 403.154 88.9297 407.32 84.7891C411.487 80.6484 413.583 75.6485 413.609 69.7891V35.8828C413.609 34.8932 413.258 34.0469 412.555 33.3438ZM441.578 55.6484C437.672 55.6484 434.339 57.0286 431.578 59.7891C428.844 62.5495 427.477 65.8828 427.477 69.7891C427.477 70.4922 427.529 71.1823 427.633 71.8594L452.359 60.6875C449.547 57.3281 445.953 55.6484 441.578 55.6484ZM461.07 63.5391C461.409 62.6016 461.37 61.6901 460.953 60.8047C459.26 57.0807 456.682 54.0859 453.219 51.8203C449.703 49.5026 445.823 48.3438 441.578 48.3438C435.693 48.3438 430.667 50.4271 426.5 54.5938C422.333 58.7604 420.25 63.7864 420.25 69.6719C420.25 75.5573 422.333 80.5833 426.5 84.75C430.667 88.9167 435.693 91 441.578 91C446.161 91 450.315 89.6589 454.039 86.9766C457.685 84.3724 460.237 80.961 461.695 76.7422C462.112 75.5703 461.969 74.4896 461.266 73.5C460.536 72.4844 459.56 71.9766 458.336 71.9766C456.617 71.9766 455.471 72.7838 454.898 74.3984C453.935 77.1849 452.255 79.4505 449.859 81.1953C447.385 82.9922 444.625 83.8906 441.578 83.8906C436.995 83.8906 433.297 82.0938 430.484 78.5C432.672 77.5104 437.45 75.349 444.82 72.0156C450.758 69.3333 455.549 67.1719 459.195 65.5312C460.107 65.1146 460.732 64.4505 461.07 63.5391Z" fill="black"></path></g><g><path id="Combined Shape" d="M67.5068 83.0664C70.0005 80.5764 74.0371 80.5829 76.5228 83.081C79.0085 85.579 79.002 89.6227 76.5083 92.1127L65.4351 103.17C55.2192 113.371 38.5605 113.519 28.1722 103.513C28.1122 103.456 23.4866 98.9202 8.22702 83.957C-1.92479 74.0029 -2.93616 58.0749 6.61697 47.8464L24.4287 28.7746C33.91 18.6219 51.3874 17.5123 62.228 26.279L78.4053 39.3621C81.1449 41.5777 81.5728 45.5985 79.3611 48.3429C77.1493 51.0873 73.1354 51.516 70.3958 49.3004L54.2187 36.2173C48.5493 31.6325 38.6319 32.2622 33.7398 37.5007L15.9279 56.5727C11.2772 61.5522 11.7866 69.574 17.1461 74.8292C28.3515 85.817 36.9874 94.2846 36.9974 94.2943C42.3981 99.496 51.1309 99.4185 56.4336 94.1234L67.5068 83.0664Z" fill="#FFA116"></path><path fill-rule="evenodd" clip-rule="evenodd" d="M40.6072 72.0015C37.0862 72.0015 34.2319 69.1422 34.2319 65.6151C34.2319 62.0879 37.0862 59.2286 40.6072 59.2286H87.6249C91.1459 59.2286 94.0002 62.0879 94.0002 65.6151C94.0002 69.1422 91.1459 72.0015 87.6249 72.0015H40.6072Z" fill="#B3B3B3"></path><path fill-rule="evenodd" clip-rule="evenodd" d="M49.4123 2.02335C51.8178 -0.55232 55.8521 -0.686894 58.4233 1.72277C60.9945 4.13244 61.1288 8.17385 58.7234 10.7495L15.9281 56.5729C11.2772 61.552 11.7866 69.5738 17.1458 74.8292L36.9093 94.2091C39.4254 96.6764 39.4685 100.72 37.0055 103.24C34.5425 105.761 30.5061 105.804 27.99 103.337L8.22642 83.9567C-1.9248 74.0021 -2.93616 58.0741 6.61739 47.8463L49.4123 2.02335Z" fill="black"></path></g></g></svg>